Coordinates
version=1
nRows=13
nColumns=22
inDegrees=yes

Units are S.I. units (second, meters, Newtons, ...)
If the header above contains a line with 'inDegrees', this indicates whether rotational values are in degrees (yes) or radians (no).

endheader
time	pelvis_tilt	pelvis_list	pelvis_rotation	pelvis_tx	pelvis_ty	pelvis_tz	hip_flexion_r	hip_adduction_r	hip_rotation_r	knee_angle_r	ankle_angle_r	subtalar_angle_r	hip_flexion_l	hip_adduction_l	hip_rotation_l	knee_angle_l	ankle_angle_l	subtalar_angle_l	lumbar_extension	lumbar_bending	lumbar_rotation
      3.28000000	      5.79968418	     -4.37387720	    -20.65379792	      0.87820879	      0.88802134	     -0.00041316	      4.85070105	      9.59844721	    -18.20666725	    -20.11322559	     16.89216880	    -17.11116118	     15.78266675	     -6.90812105	      8.50435002	    -71.85426362	     -6.85637975	      2.83276867	    -12.75696308	      2.33920957	     -1.20285972
      3.29000000	      5.76395840	     -4.24956947	    -21.90422171	      0.88517260	      0.88905762	      0.00641891	      3.93667698	      9.75845291	    -17.11765763	    -19.62746504	     17.00422432	    -16.71501606	     16.91184053	     -6.51243511	      8.58577347	    -71.15633624	     -5.94128983	      2.97732805	    -12.60460712	      1.97349767	     -0.63508048
      3.30000000	      5.71134171	     -4.15573416	    -23.19340440	      0.89194917	      0.88992331	      0.01323898	      3.04829357	      9.92137270	    -15.97509506	    -19.17114473	     17.11614654	    -16.31329543	     18.00712415	     -6.19900060	      8.62351360	    -70.29233027	     -4.92698886	      3.01650287	    -12.45660629	      1.66106746	     -0.05686972
      3.31000000	      5.66417308	     -4.07913183	    -24.54806436	      0.89856091	      0.89068049	      0.02012479	      2.15255233	     10.06780210	    -14.75681698	    -18.72706756	     17.19928861	    -15.75784387	     19.02617503	     -5.97431816	      8.55574521	    -69.23806232	     -3.93754576	      2.66611255	    -12.32261538	      1.36744374	      0.54663647
      3.32000000	      5.56894214	     -4.04362070	    -25.90290093	      0.90502130	      0.89118482	      0.02693213	      1.31890621	     10.23623221	    -13.54882834	    -18.33393069	     17.32916134	    -15.35476314	     20.04614581	     -5.84782539	      8.48771466	    -68.05852170	     -2.81000571	      2.22453622	    -12.16688442	      1.16089915	      1.14081961
      3.33000000	      5.45739234	     -4.02752904	    -27.29011714	      0.91135019	      0.89151096	      0.03373411	      0.51118069	     10.39510731	    -12.32481493	    -17.97906055	     17.48496705	    -14.99496621	     21.01716421	     -5.81139138	      8.34736492	    -66.73154314	     -1.69604788	      1.56727321	    -12.00832313	      0.99462194	      1.73672435
      3.34000000	      5.32587208	     -4.02974963	    -28.70410023	      0.91754048	      0.89165566	      0.04050469	     -0.25932675	     10.54693621	    -11.07279067	    -17.67448122	     17.66056243	    -14.68584130	     21.94106844	     -5.85572723	      8.15163812	    -65.26781127	     -0.66052966	      0.86372374	    -11.84753495	      0.86984194	      2.34006425
      3.35000000	      5.18709117	     -4.04640665	    -30.14047974	      0.92361229	      0.89164618	      0.04721086	     -0.99882235	     10.68047291	     -9.78519446	    -17.43136373	     17.85806731	    -14.40427553	     22.79770462	     -5.95584886	      7.91456952	    -63.67007877	      0.26397351	      0.14246563	    -11.69700012	      0.78022099	      2.94792601
      3.36000000	      5.04758445	     -4.07648285	    -31.58804235	      0.92960220	      0.89149802	      0.05385266	     -1.71520814	     10.79042442	     -8.49312417	    -17.24974098	     18.08838608	    -14.14539957	     23.57278820	     -6.09898638	      7.64726974	    -61.94218087	      1.08874509	     -0.55822925	    -11.55714493	      0.72037031	      3.53859861
      3.37000000	      4.91722710	     -4.11328643	    -33.04594498	      0.93550356	      0.89124413	      0.06040849	     -2.41097934	     10.86768773	     -7.16418279	    -17.13285140	     18.32231128	    -13.91274280	     24.25398440	     -6.25988467	      7.36201183	    -60.08272512	      1.74024693	     -1.12067093	    -11.43744172	      0.67806088	      4.11632842
      3.38000000	      4.78439530	     -4.16058325	    -34.50090326	      0.94135022	      0.89086464	      0.06688189	     -3.07700625	     10.92218129	     -5.84026620	    -17.08201193	     18.58489444	    -13.71087122	     24.84976282	     -6.43981703	      7.07657264	    -58.10629111	      2.29540025	     -1.52300365	    -11.32361833	      0.66309479	      4.67096876
      3.39000000	      4.67135003	     -4.22477202	    -35.93022156	      0.94715690	      0.89039770	      0.07324125	     -3.73574800	     10.94917833	     -4.53050794	    -17.09857579	     18.89203253	    -13.55560284	     25.33905380	     -6.60851665	      6.82986333	    -56.02202298	      2.75291625	     -1.83879996	    -11.24418833	      0.66736826	      5.19364762
      3.40000000	      4.51950921	     -4.27534885	    -37.36678389	      0.95288559	      0.88976611	      0.07952936	     -4.30924397	     10.96268064	     -3.20358731	    -17.18982221	     19.20022925	    -13.40094738	     25.79362402	     -6.79333611	      6.58590024	    -53.84445922	      3.02482939	     -1.86774278	    -11.12409552	      0.69591320	      5.71150964
